REM DIRINDEX 1\5,1\2\6,1\2\7,1\3\8,1\3\9,1\4\10,1\4\11,1\4\12
REM DIRNAME folder01,folder02,folder03,folder04,folder05,folder06,folder07,folder08,folder09,folder10,folder11,folder12
TITLE ""
FILE "EJE_DB3000_5th_5C_25.mp3" MP3
  TRACK 01 AUDIO
    TITLE "0:"
    INDEX 01 00:00:00
  TRACK 02 AUDIO
    TITLE "10:cjc026_11106"
    INDEX 01 00:00:07
  TRACK 03 AUDIO
    TITLE "0:"
    INDEX 01 00:01:21
  TRACK 04 AUDIO
    TITLE "11:cjc026_11107"
    INDEX 01 00:01:48
  TRACK 05 AUDIO
    TITLE "0:"
    INDEX 01 00:03:06
  TRACK 06 AUDIO
    TITLE "12:cjc026_11108"
    INDEX 01 00:03:33
  TRACK 07 AUDIO
    TITLE "0:"
    INDEX 01 00:04:48
  TRACK 08 AUDIO
    TITLE "10:cjc026_11109"
    INDEX 01 00:04:74
  TRACK 09 AUDIO
    TITLE "0:"
    INDEX 01 00:06:20
  TRACK 10 AUDIO
    TITLE "11:cjc026_11110"
    INDEX 01 00:06:45
  TRACK 11 AUDIO
    TITLE "0:"
    INDEX 01 00:08:11
  TRACK 12 AUDIO
    TITLE "12:cjc026_11111"
    INDEX 01 00:08:36
  TRACK 13 AUDIO
    TITLE "0:"
    INDEX 01 00:09:55
  TRACK 14 AUDIO
    TITLE "10:cjc026_11112"
    INDEX 01 00:10:06
  TRACK 15 AUDIO
    TITLE "0:"
    INDEX 01 00:11:25
  TRACK 16 AUDIO
    TITLE "11:cjc026_11113"
    INDEX 01 00:11:50
  TRACK 17 AUDIO
    TITLE "0:"
    INDEX 01 00:13:16
  TRACK 18 AUDIO
    TITLE "12:cjc026_11114"
    INDEX 01 00:13:41
  TRACK 19 AUDIO
    TITLE "0:"
    INDEX 01 00:14:60
  TRACK 20 AUDIO
    TITLE "10:cjc026_11115"
    INDEX 01 00:15:11
  TRACK 21 AUDIO
    TITLE "0:"
    INDEX 01 00:16:30
  TRACK 22 AUDIO
    TITLE "11:cjc026_11116"
    INDEX 01 00:16:59
  TRACK 23 AUDIO
    TITLE "0:"
    INDEX 01 00:18:13
  TRACK 24 AUDIO
    TITLE "12:cjc026_11117"
    INDEX 01 00:18:41
  TRACK 25 AUDIO
    TITLE "0:"
    INDEX 01 00:19:60
  TRACK 26 AUDIO
    TITLE "10:cjc026_11118"
    INDEX 01 00:20:12
  TRACK 27 AUDIO
    TITLE "0:"
    INDEX 01 00:21:21
  TRACK 28 AUDIO
    TITLE "11:cjc026_11119"
    INDEX 01 00:21:49
  TRACK 29 AUDIO
    TITLE "0:"
    INDEX 01 00:23:08
  TRACK 30 AUDIO
    TITLE "12:cjc026_11120"
    INDEX 01 00:23:34
  TRACK 31 AUDIO
    TITLE "0:"
    INDEX 01 00:24:45
  TRACK 32 AUDIO
    TITLE "10:cjc026_11121"
    INDEX 01 00:24:69
  TRACK 33 AUDIO
    TITLE "0:"
    INDEX 01 00:25:66
  TRACK 34 AUDIO
    TITLE "11:cjc026_11122"
    INDEX 01 00:26:20
  TRACK 35 AUDIO
    TITLE "0:"
    INDEX 01 00:27:55
  TRACK 36 AUDIO
    TITLE "12:cjc026_11123"
    INDEX 01 00:28:06
  TRACK 37 AUDIO
    TITLE "0:"
    INDEX 01 00:29:03
  TRACK 38 AUDIO
    TITLE "10:cjc026_11124"
    INDEX 01 00:29:31
  TRACK 39 AUDIO
    TITLE "0:"
    INDEX 01 00:30:42
  TRACK 40 AUDIO
    TITLE "11:cjc026_11125"
    INDEX 01 00:30:69
  TRACK 41 AUDIO
    TITLE "0:"
    INDEX 01 00:32:43
  TRACK 42 AUDIO
    TITLE "12:cjc026_11126"
    INDEX 01 00:32:70
  TRACK 43 AUDIO
    TITLE "0:"
    INDEX 01 00:34:04
  TRACK 44 AUDIO
    TITLE "10:cjc026_11127"
    INDEX 01 00:34:32
  TRACK 45 AUDIO
    TITLE "0:"
    INDEX 01 00:36:13
  TRACK 46 AUDIO
    TITLE "11:cjc026_11128"
    INDEX 01 00:36:40
  TRACK 47 AUDIO
    TITLE "0:"
    INDEX 01 00:38:18
  TRACK 48 AUDIO
    TITLE "12:cjc026_11129"
    INDEX 01 00:38:43
  TRACK 49 AUDIO
    TITLE "0:"
    INDEX 01 00:40:23
  TRACK 50 AUDIO
    TITLE "10:cjc026_11130"
    INDEX 01 00:40:50
  TRACK 51 AUDIO
    TITLE "0:"
    INDEX 01 00:41:63
  TRACK 52 AUDIO
    TITLE "11:cjc026_11131"
    INDEX 01 00:42:14
  TRACK 53 AUDIO
    TITLE "0:"
    INDEX 01 00:44:18
  TRACK 54 AUDIO
    TITLE "12:cjc026_11132"
    INDEX 01 00:44:44
  TRACK 55 AUDIO
    TITLE "0:"
    INDEX 01 00:45:59
  TRACK 56 AUDIO
    TITLE "10:cjc026_11133"
    INDEX 01 00:46:09
  TRACK 57 AUDIO
    TITLE "0:"
    INDEX 01 00:47:27
  TRACK 58 AUDIO
    TITLE "11:cjc026_11134"
    INDEX 01 00:47:52
  TRACK 59 AUDIO
    TITLE "0:"
    INDEX 01 00:49:47
  TRACK 60 AUDIO
    TITLE "12:cjc026_11135"
    INDEX 01 00:49:70
  TRACK 61 AUDIO
    TITLE "0:"
    INDEX 01 00:51:13
  TRACK 62 AUDIO
    TITLE "10:cjc026_11136"
    INDEX 01 00:51:40
  TRACK 63 AUDIO
    TITLE "0:"
    INDEX 01 00:52:55
  TRACK 64 AUDIO
    TITLE "11:cjc026_11137"
    INDEX 01 00:53:06
  TRACK 65 AUDIO
    TITLE "0:"
    INDEX 01 00:54:48
  TRACK 66 AUDIO
    TITLE "12:cjc026_11138"
    INDEX 01 00:54:74
  TRACK 67 AUDIO
    TITLE "0:"
    INDEX 01 00:56:14
  TRACK 68 AUDIO
    TITLE "10:cjc026_11139"
    INDEX 01 00:56:41
  TRACK 69 AUDIO
    TITLE "0:"
    INDEX 01 00:57:43
  TRACK 70 AUDIO
    TITLE "11:cjc026_11140"
    INDEX 01 00:57:68
  TRACK 71 AUDIO
    TITLE "0:"
    INDEX 01 00:59:61
  TRACK 72 AUDIO
    TITLE "12:cjc026_11141"
    INDEX 01 01:00:13
  TRACK 73 AUDIO
    TITLE "0:"
    INDEX 01 01:01:15
  TRACK 74 AUDIO
    TITLE "10:cjc026_11142"
    INDEX 01 01:01:40
  TRACK 75 AUDIO
    TITLE "0:"
    INDEX 01 01:02:65
  TRACK 76 AUDIO
    TITLE "11:cjc026_11143"
    INDEX 01 01:03:16
  TRACK 77 AUDIO
    TITLE "0:"
    INDEX 01 01:04:66
  TRACK 78 AUDIO
    TITLE "12:cjc026_11144"
    INDEX 01 01:05:17
  TRACK 79 AUDIO
    TITLE "0:"
    INDEX 01 01:06:42
